<?xml version="1.0" standalone="no"?><!DOCTYPE svg PUBLIC "-//W3C//DTD SVG 1.1//EN" "http://www.w3.org/Graphics/SVG/1.1/DTD/svg11.dtd"><svg t="1624671046282" class="icon" viewBox="0 0 1075 1024" version="1.1" xmlns="http://www.w3.org/2000/svg" p-id="18140" xmlns:xlink="http://www.w3.org/1999/xlink" width="209.9609375" height="200"><defs><style type="text/css"></style></defs><path d="M885.76 163.84C788.48 66.56 670.72 20.48 537.6 20.48c-138.24 0-256 46.08-348.16 143.36C92.16 256 46.08 373.76 46.08 512s46.08 250.88 143.36 348.16c97.28 97.28 215.04 143.36 348.16 143.36 138.24 0 250.88-46.08 348.16-143.36 97.28-97.28 143.36-215.04 143.36-348.16 0-138.24-46.08-256-143.36-348.16zM844.8 819.2c-87.04 81.92-184.32 128-307.2 128-117.76 0-220.16-40.96-307.2-128C143.36 732.16 102.4 634.88 102.4 512c0-117.76 40.96-220.16 128-307.2 81.92-87.04 184.32-128 307.2-128 117.76 0 220.16 40.96 307.2 128 81.92 81.92 128 184.32 128 307.2-5.12 117.76-46.08 220.16-128 307.2z" fill="#333303" p-id="18141"></path><path d="M547.84 204.8c-92.16 0-163.84 30.72-220.16 97.28-46.08 56.32-66.56 128-66.56 215.04 0 87.04 20.48 153.6 71.68 209.92 51.2 61.44 122.88 92.16 220.16 92.16 66.56 0 122.88-15.36 168.96-51.2 51.2-40.96 81.92-97.28 97.28-168.96h-92.16c-10.24 46.08-35.84 81.92-61.44 107.52-30.72 25.6-71.68 35.84-112.64 35.84-61.44 0-112.64-20.48-143.36-61.44-35.84-40.96-51.2-92.16-51.2-158.72 0-71.68 15.36-122.88 46.08-163.84 30.72-51.2 76.8-71.68 143.36-71.68 40.96 0 76.8 10.24 107.52 30.72 30.72 20.48 51.2 51.2 56.32 87.04h92.16c-10.24-66.56-40.96-117.76-87.04-153.6-40.96-30.72-97.28-46.08-168.96-46.08z" fill="#333303" p-id="18142"></path></svg>